<svg width="29" height="28" viewBox="0 0 29 28" fill="none" xmlns="http://www.w3.org/2000/svg">
<path fill-rule="evenodd" clip-rule="evenodd" d="M28.9775 13.7925C28.9775 21.4088 22.7137 27.5832 14.987 27.5832C7.26018 27.5832 0.996399 21.4088 0.996399 13.7925C0.996399 6.17607 7.26018 0.00177002 14.987 0.00177002C22.7137 0.00177002 28.9775 6.17607 28.9775 13.7925ZM27.8583 13.7925C27.8583 20.7995 22.0956 26.4799 14.987 26.4799C7.87833 26.4799 2.11564 20.7995 2.11564 13.7925C2.11564 6.78538 7.87833 1.10503 14.987 1.10503C22.0956 1.10503 27.8583 6.78538 27.8583 13.7925ZM12.7485 11.0343V11.5859H13.8677V20.412H12.7485V20.9636H13.8677H16.1062H17.2254V20.412H16.1062V11.0343H13.8677H12.7485ZM16.6658 8.27618C16.6658 9.19015 15.9142 9.93107 14.987 9.93107C14.0597 9.93107 13.3081 9.19015 13.3081 8.27618C13.3081 7.36222 14.0597 6.6213 14.987 6.6213C15.9142 6.6213 16.6658 7.36222 16.6658 8.27618Z" fill="#2B4074"/>
</svg>
