<svg width="28" height="28" viewBox="0 0 28 28" fill="none" xmlns="http://www.w3.org/2000/svg">
<path fill-rule="evenodd" clip-rule="evenodd" d="M18.9606 3.49668C22.8026 7.33866 23.0895 13.4051 19.8502 17.6737L28.1977 26.0212L26.2191 27.9998L17.8926 19.6733C13.6158 23.066 7.42652 22.8282 3.52784 18.9295C-0.672925 14.7287 -0.623572 7.86857 3.63808 3.60692C7.89972 -0.654731 14.7599 -0.704084 18.9606 3.49668ZM18.1692 4.28811C21.9391 8.05803 21.8948 14.2146 18.0703 18.0391C14.2457 21.8637 8.08919 21.908 4.31927 18.1381C0.549348 14.3681 0.593639 8.21159 4.4182 4.38704C8.24275 0.562481 14.3993 0.51819 18.1692 4.28811Z" fill="#2B4074"/>
</svg>
